<mxfile host="Electron" agent="Mozilla/5.0 (Windows NT 10.0; Win64; x64) AppleWebKit/537.36 (KHTML, like Gecko) draw.io/24.7.5 Chrome/126.0.6478.183 Electron/31.3.0 Safari/537.36" version="24.7.5">
  <diagram name="Page-1" id="vnf0eV5yiupnVKLNovAU">
    <mxGraphModel dx="600" dy="355" grid="1" gridSize="10" guides="1" tooltips="1" connect="1" arrows="1" fold="1" page="1" pageScale="1" pageWidth="4681" pageHeight="3300" math="0" shadow="0">
      <root>
        <mxCell id="0" />
        <mxCell id="1" parent="0" />
        <mxCell id="VJGYWx8bWKUVT6XtZf9w-1" value="" style="rounded=1;whiteSpace=wrap;html=1;arcSize=4;dashed=1;dashPattern=1 2;strokeWidth=2;fontStyle=1" parent="1" vertex="1">
          <mxGeometry x="80" y="170" width="460" height="340" as="geometry" />
        </mxCell>
        <mxCell id="VJGYWx8bWKUVT6XtZf9w-3" value="" style="rounded=0;whiteSpace=wrap;html=1;fontStyle=1;strokeWidth=2;" parent="1" vertex="1">
          <mxGeometry x="120" y="200" width="160" height="80" as="geometry" />
        </mxCell>
        <mxCell id="VJGYWx8bWKUVT6XtZf9w-4" value="&lt;font style=&quot;font-size: 15px;&quot;&gt;H264 Intra&lt;/font&gt;&lt;div style=&quot;font-size: 15px;&quot;&gt;&lt;font style=&quot;font-size: 15px;&quot;&gt;Encoder IP&lt;/font&gt;&lt;/div&gt;" style="rounded=0;whiteSpace=wrap;html=1;fontStyle=1;strokeWidth=2;" parent="1" vertex="1">
          <mxGeometry x="120" y="380" width="160" height="100" as="geometry" />
        </mxCell>
        <mxCell id="VJGYWx8bWKUVT6XtZf9w-5" value="&lt;font style=&quot;font-size: 15px;&quot;&gt;DMA&lt;/font&gt;" style="rounded=0;whiteSpace=wrap;html=1;fontStyle=1;strokeWidth=2;" parent="1" vertex="1">
          <mxGeometry x="380" y="400" width="120" height="60" as="geometry" />
        </mxCell>
        <mxCell id="VJGYWx8bWKUVT6XtZf9w-6" value="&lt;font style=&quot;font-size: 15px;&quot;&gt;MEMORY&lt;/font&gt;" style="rounded=0;whiteSpace=wrap;html=1;fontStyle=1;strokeWidth=2;" parent="1" vertex="1">
          <mxGeometry x="380" y="210" width="120" height="60" as="geometry" />
        </mxCell>
        <mxCell id="VJGYWx8bWKUVT6XtZf9w-8" value="" style="endArrow=classic;startArrow=classic;html=1;rounded=0;exitX=0.5;exitY=0;exitDx=0;exitDy=0;entryX=0.75;entryY=1;entryDx=0;entryDy=0;fontStyle=1;strokeWidth=2;" parent="1" source="VJGYWx8bWKUVT6XtZf9w-5" edge="1">
          <mxGeometry width="50" height="50" relative="1" as="geometry">
            <mxPoint x="350" y="420" as="sourcePoint" />
            <mxPoint x="439.9999999999998" y="340" as="targetPoint" />
          </mxGeometry>
        </mxCell>
        <mxCell id="VJGYWx8bWKUVT6XtZf9w-9" value="" style="endArrow=classic;startArrow=classic;html=1;rounded=0;exitX=0.75;exitY=0;exitDx=0;exitDy=0;entryX=0.5;entryY=1;entryDx=0;entryDy=0;fontStyle=1;strokeWidth=2;" parent="1" target="VJGYWx8bWKUVT6XtZf9w-6" edge="1">
          <mxGeometry width="50" height="50" relative="1" as="geometry">
            <mxPoint x="440.0000000000002" y="320" as="sourcePoint" />
            <mxPoint x="420" y="220" as="targetPoint" />
          </mxGeometry>
        </mxCell>
        <mxCell id="VJGYWx8bWKUVT6XtZf9w-10" value="" style="endArrow=classic;startArrow=classic;html=1;rounded=0;exitX=0.25;exitY=0;exitDx=0;exitDy=0;entryX=0.5;entryY=1;entryDx=0;entryDy=0;fontStyle=1;strokeWidth=2;" parent="1" target="VJGYWx8bWKUVT6XtZf9w-3" edge="1">
          <mxGeometry width="50" height="50" relative="1" as="geometry">
            <mxPoint x="200.00000000000034" y="320" as="sourcePoint" />
            <mxPoint x="219.76" y="280" as="targetPoint" />
          </mxGeometry>
        </mxCell>
        <mxCell id="VJGYWx8bWKUVT6XtZf9w-11" value="&lt;span style=&quot;font-size: 16px;&quot;&gt;RV32I CORE&lt;/span&gt;" style="text;html=1;align=center;verticalAlign=middle;whiteSpace=wrap;rounded=0;fontStyle=1;strokeWidth=2;" parent="1" vertex="1">
          <mxGeometry x="120" y="225" width="160" height="30" as="geometry" />
        </mxCell>
        <mxCell id="VJGYWx8bWKUVT6XtZf9w-12" value="" style="endArrow=classic;startArrow=classic;html=1;rounded=0;exitX=0.5;exitY=0;exitDx=0;exitDy=0;entryX=0.25;entryY=1;entryDx=0;entryDy=0;fontStyle=1;strokeWidth=2;" parent="1" source="VJGYWx8bWKUVT6XtZf9w-4" edge="1">
          <mxGeometry width="50" height="50" relative="1" as="geometry">
            <mxPoint x="200" y="330" as="sourcePoint" />
            <mxPoint x="200.0000000000001" y="340" as="targetPoint" />
          </mxGeometry>
        </mxCell>
        <mxCell id="VJGYWx8bWKUVT6XtZf9w-13" value="AXI SmartConnect" style="rounded=0;whiteSpace=wrap;html=1;fontStyle=1;strokeWidth=2;" parent="1" vertex="1">
          <mxGeometry x="120" y="320" width="380" height="20" as="geometry" />
        </mxCell>
        <mxCell id="VJGYWx8bWKUVT6XtZf9w-36" value="&lt;span&gt;SoC&lt;/span&gt;" style="text;html=1;align=center;verticalAlign=middle;whiteSpace=wrap;rounded=0;fontStyle=1;strokeWidth=2;" parent="1" vertex="1">
          <mxGeometry x="80" y="170" width="60" height="30" as="geometry" />
        </mxCell>
        <mxCell id="8Zb4_aS5cGa48id6ZkUg-1" value="" style="endArrow=classic;startArrow=classic;html=1;rounded=0;exitX=0;exitY=0.5;exitDx=0;exitDy=0;entryX=1;entryY=0.5;entryDx=0;entryDy=0;fontStyle=1;strokeWidth=2;" edge="1" parent="1" source="VJGYWx8bWKUVT6XtZf9w-5" target="VJGYWx8bWKUVT6XtZf9w-4">
          <mxGeometry width="50" height="50" relative="1" as="geometry">
            <mxPoint x="450" y="410" as="sourcePoint" />
            <mxPoint x="449.9999999999998" y="350" as="targetPoint" />
          </mxGeometry>
        </mxCell>
      </root>
    </mxGraphModel>
  </diagram>
</mxfile>
